<svg width="40" height="40" viewBox="0 0 40 40" fill="none" xmlns="http://www.w3.org/2000/svg">
<g clip-path="url(#clip0)">
<rect x="2" y="2" width="36" height="36" fill="transparent"/>
<path d="M6.97918 31.0208C13.6181 37.6597 24.3819 37.6597 31.0208 31.0208C37.6597 24.3819 37.6597 13.6181 31.0208 6.97919C24.3819 0.340277 13.6181 0.340277 6.97918 6.97919C0.340272 13.6181 0.340271 24.3819 6.97918 31.0208Z" fill="white"/>
<path d="M35.9116 20.6136L28.0411 20.7418L31.1629 23.7639L28.5357 26.4783L20.7801 18.9711L28.2872 11.2155L31.0017 13.8436L27.9801 16.965L35.8501 16.8372C35.3791 13.1402 33.7028 9.57267 30.8236 6.78518C24.088 0.265891 13.304 0.441282 6.78516 7.17647C3.99723 10.0561 2.4381 13.6757 2.08772 17.3866L9.95822 17.2584L6.83637 14.2362L9.46402 11.5222L17.2192 19.029L9.71204 26.7846L6.998 24.157L10.0192 21.0351L2.14917 21.1629C2.62021 24.8599 4.29645 28.4274 7.17611 31.2145C13.9113 37.7342 24.6953 37.5588 31.2146 30.8232C34.002 27.944 35.5616 24.324 35.9116 20.6136Z" fill="#1B345B"/>
<path d="M38 26H26V38H38V26Z" fill="#161616"/>
<path d="M32 27.0208H27.0208V32H32V27.0208Z" fill="#161616"/>
<path fill-rule="evenodd" clip-rule="evenodd" d="M31.254 28.5768C31.254 29.0236 30.8915 29.3859 30.4444 29.3859C30.2857 29.3859 30.1377 29.3403 30.0128 29.2614H30.5066V28.5145H29.6372C29.669 28.0967 30.0182 27.7676 30.4444 27.7676C30.8915 27.7676 31.254 28.1299 31.254 28.5768Z" fill="white"/>
<path fill-rule="evenodd" clip-rule="evenodd" d="M31.2531 29.1992C31.2531 29.646 30.8903 30.0083 30.4428 30.0083C30.0163 30.0083 29.6667 29.6792 29.6349 29.2614H30.5288V28.5145H30.0108C30.1358 28.4357 30.284 28.39 30.4428 28.39C30.8903 28.39 31.2531 28.7523 31.2531 29.1992Z" fill="white"/>
<path d="M28.5145 27.7676H27.7676V31.2531H28.5145V27.7676Z" fill="white"/>
<path fill-rule="evenodd" clip-rule="evenodd" d="M30.0845 29.3828L29.4511 29.7786L30.3725 31.2531H31.2532L30.0845 29.3828Z" fill="white"/>
<path d="M27.7676 27.7676V28.5145H30.4689V27.7676H27.7676Z" fill="white"/>
<path d="M27.7676 29.2614V30.0083H30.4564V29.2614H27.7676Z" fill="white"/>
<path d="M31.2531 28.5892H30.5062V29.1867H31.2531V28.5892Z" fill="white"/>
<path fill-rule="evenodd" clip-rule="evenodd" d="M30.6556 28.3651H30.2822V28.5148C30.407 28.5213 30.5062 28.6246 30.5062 28.751H30.6556V28.3651Z" fill="white"/>
<path fill-rule="evenodd" clip-rule="evenodd" d="M30.5062 29.0249C30.5062 29.1555 30.4003 29.2614 30.2697 29.2614H30.5187V29.0249H30.5062Z" fill="white"/>
<path d="M36.9793 27.0208H32V32H36.9793V27.0208Z" fill="#161616"/>
<path fill-rule="evenodd" clip-rule="evenodd" d="M36.2324 30.0705C36.2324 30.5174 35.8701 30.8797 35.4232 30.8797C35.1368 30.8797 34.8851 30.7308 34.7413 30.5062H35.4855V29.8838H34.6358C34.72 29.527 35.0406 29.2614 35.4232 29.2614C35.8701 29.2614 36.2324 29.6237 36.2324 30.0705Z" fill="white"/>
<path fill-rule="evenodd" clip-rule="evenodd" d="M36.2324 30.444C36.2324 30.8908 35.8701 31.2531 35.4232 31.2531C34.9973 31.2531 34.6482 30.924 34.6165 30.5062H35.4855V29.7593H34.9918C35.1167 29.6805 35.2646 29.6349 35.4232 29.6349C35.8701 29.6349 36.2324 29.9971 36.2324 30.444Z" fill="white"/>
<path fill-rule="evenodd" clip-rule="evenodd" d="M36.2324 28.5768C36.2324 29.0236 35.8701 29.3859 35.4232 29.3859C35.1938 29.3859 34.9866 29.2904 34.8394 29.1369H35.4855V28.5145H34.6165C34.6482 28.0967 34.9973 27.7676 35.4232 27.7676C35.8701 27.7676 36.2324 28.1299 36.2324 28.5768Z" fill="white"/>
<path fill-rule="evenodd" clip-rule="evenodd" d="M36.2324 29C36.2324 29.4469 35.8701 29.8091 35.4232 29.8091C35.0963 29.8091 34.8146 29.6152 34.687 29.3361H35.4855V28.4647H34.8164C34.9647 28.2968 35.1816 28.1909 35.4232 28.1909C35.8701 28.1909 36.2324 28.5531 36.2324 29Z" fill="white"/>
<path d="M36.2324 28.5643H35.4855V28.9876H36.2324V28.5643Z" fill="white"/>
<path d="M36.2324 30.0332H35.4855V30.4564H36.2324V30.0332Z" fill="white"/>
<path d="M35.4855 27.7676H33.4938V28.5145H35.4855V27.7676Z" fill="white"/>
<path d="M35.4855 30.5062H33.4938V31.2531H35.4855V30.5062Z" fill="white"/>
<path d="M35.4855 29.1369H33.8672V29.8838H35.4855V29.1369Z" fill="white"/>
<path d="M32.9461 28.5643H32.7469V28.7137H32.9461V28.5643Z" fill="white"/>
<path fill-rule="evenodd" clip-rule="evenodd" d="M33.6929 28.5175C33.5922 28.5334 33.5127 28.613 33.4967 28.7137H32.7584C32.7508 28.6692 32.7469 28.6234 32.7469 28.5768C32.7469 28.1299 33.1092 27.7676 33.556 27.7676C33.9819 27.7676 34.331 28.0967 34.3628 28.5145H33.7303H33.6929V28.5175Z" fill="white"/>
<path fill-rule="evenodd" clip-rule="evenodd" d="M33.6929 30.5033C33.5922 30.4873 33.5127 30.4078 33.4967 30.3071H32.7584C32.7508 30.3516 32.7469 30.3973 32.7469 30.444C32.7469 30.8908 33.1092 31.2531 33.556 31.2531C33.9819 31.2531 34.331 30.924 34.3628 30.5062H33.7303H33.6929V30.5033Z" fill="white"/>
<path d="M32.9958 30.3071H32.7469V30.4564H32.9958V30.3071Z" fill="white"/>
<path fill-rule="evenodd" clip-rule="evenodd" d="M35.5851 28.4025H35.2365V28.5149C35.2406 28.5146 35.2448 28.5145 35.249 28.5145C35.3796 28.5145 35.4855 28.6204 35.4855 28.751H35.5851V28.4025Z" fill="white"/>
<path fill-rule="evenodd" clip-rule="evenodd" d="M35.4855 28.9004C35.4855 29.031 35.3796 29.1369 35.249 29.1369V29.249H35.5975V28.9004H35.4855Z" fill="white"/>
<path fill-rule="evenodd" clip-rule="evenodd" d="M35.5851 29.7718H35.2365V29.8841C35.2406 29.8839 35.2448 29.8838 35.249 29.8838C35.3796 29.8838 35.4855 29.9897 35.4855 30.1203H35.5851V29.7718Z" fill="white"/>
<path fill-rule="evenodd" clip-rule="evenodd" d="M35.4855 30.2697C35.4855 30.4003 35.3796 30.5062 35.249 30.5062V30.6183H35.5975V30.2697H35.4855Z" fill="white"/>
<path d="M32 32H27.0208V36.9793H32V32Z" fill="#161616"/>
<path d="M28.5145 32.7469H27.7676V36.2324H28.5145V32.7469Z" fill="white"/>
<path d="M30.3817 33.4938V32.7469H27.7676V33.4938H30.3817Z" fill="white"/>
<path d="M30.1577 34.8631V34.1162H27.7676V34.8631H30.1577Z" fill="white"/>
<path d="M30.4564 36.2324V35.4855H27.7676V36.2324H30.4564Z" fill="white"/>
<path fill-rule="evenodd" clip-rule="evenodd" d="M31.2531 35.0498C31.2531 35.4967 30.8909 35.8589 30.444 35.8589C30.1575 35.8589 29.9058 35.7101 29.7621 35.4855H30.5095V34.8631H29.6565C29.7408 34.5062 30.0614 34.2407 30.444 34.2407C30.8909 34.2407 31.2531 34.6029 31.2531 35.0498Z" fill="white"/>
<path fill-rule="evenodd" clip-rule="evenodd" d="M31.2531 35.4232C31.2531 35.8701 30.8903 36.2324 30.4428 36.2324C30.0163 36.2324 29.6667 35.9033 29.6349 35.4855H30.5051V34.7386H30.0108C30.1358 34.6597 30.284 34.6141 30.4428 34.6141C30.8903 34.6141 31.2531 34.9764 31.2531 35.4232Z" fill="white"/>
<path fill-rule="evenodd" clip-rule="evenodd" d="M31.2531 33.556C31.2531 34.0029 30.8903 34.3651 30.4428 34.3651C30.213 34.3651 30.0055 34.2696 29.8581 34.1162H30.5051V33.4938H29.6349C29.6667 33.076 30.0163 32.7469 30.4428 32.7469C30.8903 32.7469 31.2531 33.1092 31.2531 33.556Z" fill="white"/>
<path fill-rule="evenodd" clip-rule="evenodd" d="M31.2549 33.9792C31.2549 34.4261 30.8926 34.7884 30.4458 34.7884C30.1188 34.7884 29.8372 34.5945 29.7095 34.3153H30.508V33.444H29.839C29.9873 33.276 30.2041 33.1701 30.4458 33.1701C30.8926 33.1701 31.2549 33.5324 31.2549 33.9792Z" fill="white"/>
<path fill-rule="evenodd" clip-rule="evenodd" d="M30.6058 33.3942H30.2573V33.4941C30.2614 33.4939 30.2655 33.4938 30.2697 33.4938C30.4003 33.4938 30.5062 33.5997 30.5062 33.7303C30.5062 33.7345 30.5061 33.7386 30.5059 33.7427H30.6058V33.3942Z" fill="white"/>
<path fill-rule="evenodd" clip-rule="evenodd" d="M30.5062 33.8797C30.5062 34.0103 30.4003 34.1162 30.2697 34.1162C30.2655 34.1162 30.2614 34.1161 30.2573 34.1159V34.2158H30.6058V33.8672H30.5059C30.5061 33.8714 30.5062 33.8755 30.5062 33.8797Z" fill="white"/>
<path fill-rule="evenodd" clip-rule="evenodd" d="M30.6058 34.7635H30.2573V34.8634C30.2614 34.8632 30.2655 34.8631 30.2697 34.8631C30.4003 34.8631 30.5062 34.969 30.5062 35.0996C30.5062 35.1038 30.5061 35.1079 30.5059 35.112H30.6058V34.7635Z" fill="white"/>
<path fill-rule="evenodd" clip-rule="evenodd" d="M30.5062 35.249C30.5062 35.3796 30.4003 35.4855 30.2697 35.4855C30.2655 35.4855 30.2614 35.4854 30.2573 35.4852V35.5851H30.6058V35.2365H30.5059C30.5061 35.2406 30.5062 35.2448 30.5062 35.249Z" fill="white"/>
<path d="M31.2531 33.5685H30.5062V34.0166H31.2531V33.5685Z" fill="white"/>
<path d="M31.2531 35.0373H30.5062V35.4606H31.2531V35.0373Z" fill="white"/>
<path d="M36.9793 32H32V36.9793H36.9793V32Z" fill="#161616"/>
<path d="M33.4938 32.7469H32.7469V36.2324H33.4938V32.7469Z" fill="white"/>
<path d="M36.2342 36.2348V35.4879H32.7487V36.2348H36.2342Z" fill="white"/>
<rect x="25" y="25" width="1" height="13" fill="white"/>
<rect x="38" y="25" width="1" height="13" transform="rotate(90 38 25)" fill="white"/>
</g>
<defs>
<clipPath id="clip0">
<rect width="40" height="40" fill="white"/>
</clipPath>
</defs>
</svg>
