<svg width="16" height="16" viewBox="0 0 16 16" fill="none" xmlns="http://www.w3.org/2000/svg">
<g clip-path="url(#clip0)">
<path d="M2.34315 13.6706C5.46734 16.7948 10.5327 16.7948 13.6569 13.6706C16.781 10.5464 16.781 5.48105 13.6569 2.35685C10.5327 -0.767342 5.46734 -0.767342 2.34315 2.35685C-0.781049 5.48105 -0.781049 10.5464 2.34315 13.6706Z" fill="white"/>
<path d="M15.9584 8.77302L12.2546 8.83335L13.7237 10.2555L12.4874 11.5329L8.83767 8.00012L12.3705 4.35041L13.6479 5.58717L12.2259 7.05606L15.9295 6.99594C15.7078 5.25614 14.919 3.57732 13.5641 2.26555C10.3943 -0.802348 5.31952 -0.719811 2.25184 2.44969C0.939873 3.80482 0.206164 5.50815 0.041281 7.25444L3.74505 7.19411L2.27594 5.77193L3.51248 4.49475L7.16199 8.02735L3.62919 11.6771L2.352 10.4405L3.77375 8.9714L0.0701981 9.03153C0.291866 10.7713 1.08068 12.4501 2.43582 13.7617C5.60533 16.8298 10.6801 16.7473 13.748 13.5776C15.0598 12.2226 15.7937 10.5191 15.9584 8.77302Z" fill="#1B345B"/>
</g>
<defs>
<clipPath id="clip0">
<rect width="16" height="16" fill="white"/>
</clipPath>
</defs>
</svg>
